<svg width="16" height="16" viewBox="0 0 16 16" fill="none" xmlns="http://www.w3.org/2000/svg">
<g id="icon/action/visibility_24px">
<path id="icon/action/visibility_24px_2" fill-rule="evenodd" clip-rule="evenodd" d="M0.666687 8C1.82002 5.07333 4.66669 3 8.00002 3C11.3334 3 14.18 5.07333 15.3334 8C14.18 10.9267 11.3334 13 8.00002 13C4.66669 13 1.82002 10.9267 0.666687 8ZM13.88 8C12.78 5.75333 10.5267 4.33333 8.00002 4.33333C5.47336 4.33333 3.22002 5.75333 2.12002 8C3.22002 10.2467 5.47336 11.6667 8.00002 11.6667C10.5267 11.6667 12.78 10.2467 13.88 8ZM8.00003 6.33333C8.92003 6.33333 9.66669 7.08 9.66669 8C9.66669 8.92 8.92003 9.66666 8.00003 9.66666C7.08003 9.66666 6.33336 8.92 6.33336 8C6.33336 7.08 7.08003 6.33333 8.00003 6.33333ZM5.00002 8C5.00002 6.34667 6.34668 5 8.00002 5C9.65335 5 11 6.34667 11 8C11 9.65333 9.65335 11 8.00002 11C6.34668 11 5.00002 9.65333 5.00002 8Z" fill="#8A8A8A"/>
</g>
</svg>
